<svg width="214" height="192" viewBox="0 0 214 192" fill="none" xmlns="http://www.w3.org/2000/svg">
<path d="M37.5 6.5L61.5 38.5" stroke="#0F0F0F" stroke-width="2.4" stroke-linecap="round" stroke-linejoin="round"/>
<path d="M62.5 15.5L86.5 47.5" stroke="#860010" stroke-width="2.4" stroke-linecap="round" stroke-linejoin="round"/>
<path fill-rule="evenodd" clip-rule="evenodd" d="M148.111 73.0909L142.01 84.5909L128.352 86.6003L138.219 96.2226L135.881 109.724L148.094 103.344L160.305 109.724L157.961 96.2226L167.596 86.6003L154.217 84.5909L148.111 73.0909ZM55.7181 73.0909L49.6064 84.5909L36.0009 86.6003L45.826 96.2226L43.4842 109.724L55.6909 103.344L67.9019 109.724L65.56 96.2226L75.4751 86.6003L61.8194 84.5909L55.7181 73.0909Z" fill="#FFB62A"/>
<path fill-rule="evenodd" clip-rule="evenodd" d="M55.7177 73.0909V103.344L67.9286 109.724L65.5847 96.2226L75.4747 86.6003L61.8189 84.5909L55.7177 73.0909Z" fill="#FFB62A"/>
<path fill-rule="evenodd" clip-rule="evenodd" d="M120.409 124.568C118.596 124.568 117.166 123.148 117.166 121.327V118.093H84.6585V121.327C84.6585 123.148 83.2409 124.568 81.4197 124.568H71.6719V153.237C71.6719 170.464 83.3601 185.541 100.129 189.763L100.905 189.951L101.674 189.763C118.45 185.541 130.136 170.447 130.136 153.237V124.568H120.409Z" fill="#F5F5F5"/>
<path fill-rule="evenodd" clip-rule="evenodd" d="M130.153 124.568V153.237C130.153 170.464 118.465 185.541 101.698 189.763L100.924 189.951V118.068H117.166V121.311C117.166 123.132 118.596 124.554 120.409 124.554H130.153V124.568Z" fill="#E7E7F2"/>
<path fill-rule="evenodd" clip-rule="evenodd" d="M120.409 131.071C116.187 131.071 112.551 128.334 111.253 124.568H90.5967C89.2334 128.457 85.5597 131.071 81.4323 131.071H78.1997V153.253C78.1997 167.229 87.4771 179.521 100.945 183.302C114.389 179.536 123.692 167.229 123.692 153.253V131.071H120.409Z" fill="#860010"/>
<path fill-rule="evenodd" clip-rule="evenodd" d="M123.651 131.071V153.253C123.651 167.229 114.366 179.521 100.906 183.302V124.568H111.229C112.53 128.334 116.172 131.071 120.392 131.071H123.651Z" fill="#860010"/>
<path fill-rule="evenodd" clip-rule="evenodd" d="M121.662 86.6001L108.006 84.5907L101.905 73.0907L95.7954 84.5907L82.1501 86.6001L92.013 96.2224L89.6691 109.723L101.88 103.344L114.091 109.723L111.755 96.2224L121.662 86.6001Z" fill="#FFB62A"/>
<path fill-rule="evenodd" clip-rule="evenodd" d="M112.927 149.808L100.904 161.894L97.6635 165.139L88.8817 156.292L93.442 151.736L97.6635 155.891L100.904 152.648L108.369 145.248L112.927 149.808Z" fill="#F5F5F5"/>
<path fill-rule="evenodd" clip-rule="evenodd" d="M114.117 109.724L101.906 103.344V73.0909L108.006 84.5909L121.661 86.6003L111.796 96.2226L114.117 109.724Z" fill="#FFB62A"/>
<path fill-rule="evenodd" clip-rule="evenodd" d="M112.927 149.808L100.904 161.894V152.675L108.369 145.275L112.927 149.808Z" fill="#E7E7F2"/>
<path fill-rule="evenodd" clip-rule="evenodd" d="M175 13.5L169.71 16.2812L170.72 10.3906L166.44 6.21885L172.355 5.35942L175 0L177.645 5.35942L183.56 6.21885L179.28 10.3906L180.29 16.2812L175 13.5Z" fill="#FCC202"/>
<path fill-rule="evenodd" clip-rule="evenodd" d="M207 71L214 85H200L207 71Z" fill="#860010"/>
<circle cx="164" cy="57" r="6" fill="#472D2D"/>
<path fill-rule="evenodd" clip-rule="evenodd" d="M9 134.5L3.70993 137.281L4.72025 131.391L0.440491 127.219L6.35497 126.359L9 121L11.645 126.359L17.5595 127.219L13.2798 131.391L14.2901 137.281L9 134.5Z" fill="#FF001E"/>
<path fill-rule="evenodd" clip-rule="evenodd" d="M39 178L46 192H32L39 178Z" fill="#332DA1"/>
<circle cx="37" cy="147" r="4" fill="#860010"/>
<circle cx="20" cy="47" r="6" fill="#FF6B00"/>
</svg>
