<svg width="36" height="40" viewBox="0 0 36 40" fill="none" xmlns="http://www.w3.org/2000/svg">
<path d="M15.99 1.16402C17.23 0.444023 18.77 0.444023 20.01 1.16402L26.6499 5.01803L33.3101 8.84402C34.5501 9.55902 35.3201 10.885 35.3201 12.32L35.3 20L35.3201 27.68C35.3201 29.115 34.5501 30.441 33.3101 31.156L26.6499 34.982L20.01 38.836C18.77 39.556 17.23 39.556 15.99 38.836L9.3501 34.982L2.68994 31.156C1.44994 30.441 0.679932 29.115 0.679932 27.68L0.699951 20L0.679932 12.32C0.679932 10.885 1.44994 9.55902 2.68994 8.84402L9.3501 5.01803L15.99 1.16402Z" fill="#F6B191"/>
<mask id="mask0_2298_965" style="mask-type:luminance" maskUnits="userSpaceOnUse" x="8" y="10" width="20" height="20">
<path d="M28 10H8V30H28V10Z" fill="white"/>
</mask>
<g mask="url(#mask0_2298_965)">
<path d="M18 15L21.3301 20L25.5 16.667L23.8301 25H12.1699L10.5 16.667L14.6699 20L18 15Z" fill="white" stroke="white" stroke-width="1.5" stroke-linecap="round" stroke-linejoin="round"/>
</g>
</svg>
